<svg width="63" height="63" viewBox="0 0 63 63" fill="none" xmlns="http://www.w3.org/2000/svg">
<path d="M40.0909 0H14.3182C11.9414 0 9.90818 1.575 9.04909 3.843L0.400909 26.0505C0.143182 26.775 0 27.531 0 28.35V34.65C0 38.115 2.57727 40.95 5.72727 40.95H23.7968L21.0764 55.3455L20.9905 56.3535C20.9905 57.645 21.4773 58.842 22.2505 59.6925L25.2859 63L44.1573 42.2415C45.1882 41.1075 45.8182 39.5325 45.8182 37.8V6.3C45.8182 2.835 43.2409 0 40.0909 0ZM51.5455 0V37.8H63V0H51.5455Z" fill="#FF0000"/>
</svg>
