<svg width="63" height="63" viewBox="0 0 63 63" fill="none" xmlns="http://www.w3.org/2000/svg">
<path d="M0 63H11.4545V25.2H0V63ZM63 28.35C63 24.885 60.4227 22.05 57.2727 22.05H39.2032L41.9236 7.6545L42.0095 6.6465C42.0095 5.355 41.5227 4.158 40.7495 3.3075L37.7141 0L18.8714 20.7585C17.8118 21.8925 17.1818 23.4675 17.1818 25.2V56.7C17.1818 60.165 19.7591 63 22.9091 63H48.6818C51.0586 63 53.0918 61.425 53.9509 59.157L62.5991 36.9495C62.8568 36.225 63 35.469 63 34.65V28.35Z" fill="#008000"/>
</svg>
